<?xml version="1.0" encoding="UTF-8" standalone="no"?>
<!DOCTYPE svg PUBLIC "-//W3C//DTD SVG 1.1//EN" "http://www.w3.org/Graphics/SVG/1.1/DTD/svg11.dtd">
<svg width="100%" height="100%" viewBox="0 0 500 500" version="1.1" xmlns="http://www.w3.org/2000/svg" xmlns:xlink="http://www.w3.org/1999/xlink" xml:space="preserve" xmlns:serif="http://www.serif.com/" style="fill-rule:evenodd;clip-rule:evenodd;stroke-linejoin:round;stroke-miterlimit:2;">
  <g>
    <g>
      <clipPath id="_clip1">
        <path d="M79.995,256.714c9.792,0 17.755,-7.979 17.755,-17.786l0,-48.682l-35.505,0l0,66.469l17.75,0Zm-29.995,12.266l0,-91l60,0l0,60.948c0,16.568 -13.458,30.047 -29.995,30.047l-30.005,0.005Z"/>
      </clipPath>
      <g clip-path="url(#_clip1)">
        <path d="M19.365,189.891l38.49,99.365l82.781,-32.182l-38.49,-99.365l-82.781,32.182Z" style="fill:#fc5e38;fill-rule:nonzero;"/>
      </g>
    </g>
  </g>
  <g>
    <g>
      <clipPath id="_clip2">
        <path d="M132.839,309.807l0,-0.859c0,-1.005 -0.036,-1.708 -0.104,-2.125c-0.141,-0.828 -0.594,-1.365 -1.365,-1.604c-0.469,-0.146 -1.104,-0.219 -1.917,-0.219c-1.38,0 -2.307,0.24 -2.766,0.724c-0.328,0.354 -0.526,0.911 -0.583,1.667c-0.031,0.339 -0.047,0.854 -0.047,1.547l0,0.865l6.781,0.005Zm-3.307,8.208c-1.193,0 -2.12,-0.104 -2.786,-0.318c-1.307,-0.411 -2.151,-1.318 -2.536,-2.714c-0.182,-0.693 -0.276,-1.682 -0.276,-2.964l0,-2.984c0,-1.281 0.094,-2.271 0.276,-2.964c0.385,-1.401 1.229,-2.313 2.536,-2.729c0.667,-0.208 1.562,-0.318 2.693,-0.318c1.125,0 2.016,0.109 2.682,0.318c1.307,0.417 2.151,1.328 2.536,2.729c0.182,0.693 0.276,1.672 0.276,2.958l0,1.432c0,0.443 -0.083,0.76 -0.25,0.953c-0.182,0.203 -0.51,0.307 -0.964,0.307l-7.661,0l0,0.406c0,0.99 0.042,1.698 0.115,2.109c0.141,0.823 0.594,1.349 1.359,1.594c0.458,0.146 1.125,0.219 1.995,0.219l0.422,0c1.026,0 1.771,-0.146 2.24,-0.427c0.37,-0.234 0.688,-0.594 0.948,-1.078l1.688,1c-0.318,0.724 -0.771,1.286 -1.349,1.682c-0.781,0.531 -1.958,0.792 -3.531,0.792l-0.411,-0.005Z"/>
      </clipPath>
      <g clip-path="url(#_clip2)">
        <path d="M119.047,304.99l6.323,16.875l14.448,-5.802l-6.323,-16.875l-14.448,5.802Z" style="fill:#fc5e38;fill-rule:nonzero;"/>
      </g>
    </g>
  </g>
  <g>
    <g>
      <clipPath id="_clip3">
        <path d="M149.312,318.021l0,-14.755l1.953,0l0.312,1.021l0.052,0c0.427,-0.411 0.839,-0.703 1.234,-0.88c0.599,-0.255 1.385,-0.385 2.359,-0.385l0.151,0c1.266,0 2.245,0.104 2.953,0.312c1.385,0.432 2.281,1.354 2.682,2.776c0.198,0.703 0.297,1.708 0.297,3.026l0,8.885l-2.271,0l0,-8.995c0,-1.021 -0.036,-1.74 -0.109,-2.161c-0.146,-0.833 -0.625,-1.37 -1.443,-1.62c-0.495,-0.146 -1.198,-0.219 -2.109,-0.219l-0.135,0c-1.521,0 -2.526,0.24 -3.01,0.734c-0.349,0.359 -0.557,0.927 -0.62,1.698c-0.016,0.328 -0.031,0.849 -0.031,1.552l0,9.01l-2.266,0Z"/>
      </clipPath>
      <g clip-path="url(#_clip3)">
        <path d="M144.224,304.984l6.656,17.062l15.51,-5.99l-6.656,-17.057l-15.51,5.984Z" style="fill:#fc5e38;fill-rule:nonzero;"/>
      </g>
    </g>
  </g>
  <g>
    <g>
      <clipPath id="_clip4">
        <path d="M170.865,268.99l0,-61.318c0,-9.604 -7.771,-17.411 -17.318,-17.411l-29.464,0l0,-12.271l29.464,0c16.271,0 29.521,13.312 29.521,29.682l0,61.318l-12.203,0Z"/>
      </clipPath>
      <g clip-path="url(#_clip4)">
        <path d="M93.557,189.901l38.245,99.094l81.786,-31.917l-38.245,-99.089l-81.786,31.911Z" style="fill:url(#_Linear5);fill-rule:nonzero;"/>
      </g>
    </g>
  </g>
  <g>
    <clipPath id="_clip6">
      <path d="M124.026,220.417l49.323,0l0,12.276l-49.323,0l0,-12.276Zm0,12.276l12.203,0l0,36.302l-12.203,0l0,-36.302Z"/>
    </clipPath>
    <g clip-path="url(#_clip6)">
      <path d="M107.734,226.776l22.75,58.948l59.161,-23.083l-22.75,-58.948l-59.161,23.083Z" style="fill:url(#_Linear7);fill-rule:nonzero;"/>
    </g>
  </g>
  <g>
    <g>
      <clipPath id="_clip8">
        <path d="M181.016,316.005c1.51,0 2.505,-0.24 3,-0.724c0.349,-0.354 0.552,-0.911 0.615,-1.661c0.016,-0.323 0.031,-0.833 0.031,-1.531l0,-3.182c0,-0.995 -0.036,-1.703 -0.109,-2.115c-0.146,-0.818 -0.62,-1.344 -1.432,-1.589c-0.495,-0.146 -1.198,-0.214 -2.115,-0.214l-0.161,0c-1.5,0 -2.495,0.234 -2.99,0.719c-0.359,0.344 -0.573,0.901 -0.635,1.661c-0.016,0.323 -0.026,0.833 -0.026,1.526l0,3.177c0,0.995 0.036,1.703 0.109,2.115c0.146,0.818 0.625,1.344 1.448,1.589c0.479,0.146 1.182,0.219 2.094,0.219l0.172,0.01Zm-0.969,9.016c-1.75,0 -3.042,-0.307 -3.885,-0.911c-0.542,-0.38 -0.964,-0.901 -1.25,-1.557l1.755,-1c0.312,0.531 0.698,0.917 1.167,1.146c0.469,0.234 1.208,0.349 2.208,0.349l0.964,0c1.51,0 2.51,-0.24 3.005,-0.724c0.344,-0.354 0.552,-0.906 0.615,-1.661c0.016,-0.333 0.031,-0.844 0.031,-1.526l0,-2.406l-0.052,0c-0.432,0.401 -0.839,0.693 -1.229,0.859c-0.594,0.25 -1.38,0.375 -2.354,0.375l-0.182,0c-1.266,0 -2.24,-0.104 -2.932,-0.318c-1.375,-0.411 -2.26,-1.312 -2.667,-2.703c-0.193,-0.703 -0.292,-1.688 -0.292,-2.969l0,-2.958c0,-1.292 0.099,-2.276 0.292,-2.964c0.411,-1.396 1.297,-2.302 2.677,-2.719c0.688,-0.203 1.667,-0.307 2.927,-0.307l0.182,0c0.974,0 1.76,0.125 2.354,0.375c0.391,0.177 0.807,0.464 1.229,0.865l0.062,0l0.297,-1l1.943,0l0,15.766c0,1.276 -0.094,2.266 -0.292,2.964c-0.401,1.391 -1.292,2.297 -2.667,2.708c-0.698,0.208 -1.677,0.318 -2.938,0.318l-0.969,0Z"/>
      </clipPath>
      <g clip-path="url(#_clip8)">
        <path d="M167.359,305.906l9.125,23.089l17.984,-6.854l-9.125,-23.089l-17.984,6.854Z" style="fill:url(#_Linear9);fill-rule:nonzero;"/>
      </g>
    </g>
  </g>
  <g>
    <g>
      <clipPath id="_clip10">
        <path d="M209.646,309.807l0,-0.859c0,-1.005 -0.031,-1.708 -0.104,-2.125c-0.135,-0.828 -0.589,-1.365 -1.359,-1.604c-0.469,-0.146 -1.104,-0.219 -1.917,-0.219c-1.391,0 -2.307,0.24 -2.766,0.724c-0.333,0.354 -0.526,0.911 -0.583,1.667c-0.031,0.339 -0.047,0.854 -0.047,1.547l0,0.865l6.776,0.005Zm-3.312,8.208c-1.193,0 -2.115,-0.104 -2.781,-0.318c-1.307,-0.411 -2.156,-1.318 -2.536,-2.714c-0.182,-0.693 -0.271,-1.682 -0.271,-2.964l0,-2.984c0,-1.281 0.089,-2.271 0.276,-2.964c0.38,-1.401 1.229,-2.313 2.536,-2.729c0.661,-0.208 1.562,-0.318 2.693,-0.318c1.12,0 2.016,0.109 2.677,0.318c1.313,0.417 2.156,1.328 2.536,2.729c0.188,0.693 0.281,1.672 0.281,2.958l0,1.432c0,0.443 -0.083,0.76 -0.25,0.953c-0.188,0.203 -0.51,0.307 -0.969,0.307l-7.656,0l0,0.406c0,0.99 0.036,1.698 0.115,2.109c0.13,0.823 0.589,1.349 1.359,1.594c0.458,0.146 1.125,0.219 1.99,0.219l0.427,0c1.021,0 1.771,-0.146 2.24,-0.427c0.37,-0.234 0.688,-0.594 0.948,-1.078l1.687,1c-0.328,0.724 -0.771,1.286 -1.349,1.682c-0.786,0.531 -1.958,0.792 -3.536,0.792l-0.417,-0.005Z"/>
      </clipPath>
      <g clip-path="url(#_clip10)">
        <path d="M195.859,304.99l6.323,16.875l14.443,-5.802l-6.323,-16.875l-14.443,5.802Z" style="fill:url(#_Linear11);fill-rule:nonzero;"/>
      </g>
    </g>
  </g>
  <g>
    <g>
      <clipPath id="_clip12">
        <path d="M226.12,318.016l0,-14.74l1.958,0l0.307,1.016l0.047,0c0.438,-0.406 0.849,-0.703 1.24,-0.88c0.599,-0.255 1.385,-0.38 2.359,-0.38l0.156,0c1.266,0 2.245,0.104 2.948,0.307c1.391,0.432 2.286,1.354 2.688,2.776c0.198,0.698 0.297,1.703 0.297,3.021l0,8.88l-2.271,0l0,-8.99c0,-1.016 -0.036,-1.734 -0.109,-2.156c-0.146,-0.833 -0.625,-1.37 -1.443,-1.62c-0.495,-0.146 -1.203,-0.219 -2.109,-0.219l-0.135,0c-1.521,0 -2.526,0.24 -3.01,0.734c-0.354,0.359 -0.562,0.927 -0.62,1.693c-0.021,0.333 -0.031,0.849 -0.031,1.557l0,9l-2.271,0Z"/>
      </clipPath>
      <g clip-path="url(#_clip12)">
        <path d="M221.031,304.99l6.656,17.047l15.521,-5.984l-6.661,-17.042l-15.516,5.979Z" style="fill:url(#_Linear13);fill-rule:nonzero;"/>
      </g>
    </g>
  </g>
  <g>
    <g>
      <clipPath id="_clip14">
        <path d="M251.979,318.073l0,-20.984l2.26,0l0,7.307l0.047,0c0.432,-0.411 0.844,-0.703 1.234,-0.865c0.604,-0.266 1.391,-0.401 2.37,-0.401l0.172,0c1.26,0 2.24,0.109 2.943,0.323c1.385,0.417 2.276,1.333 2.682,2.75c0.193,0.708 0.292,1.714 0.292,3.016l0,8.854l-2.255,0l0,-8.964c0,-1.016 -0.036,-1.724 -0.115,-2.141c-0.146,-0.839 -0.62,-1.38 -1.438,-1.615c-0.505,-0.146 -1.203,-0.214 -2.104,-0.214l-0.172,0c-1.516,0 -2.521,0.245 -3.005,0.724c-0.349,0.37 -0.557,0.937 -0.615,1.687c-0.021,0.344 -0.031,0.859 -0.031,1.552l0,8.969l-2.266,0Z"/>
      </clipPath>
      <g clip-path="url(#_clip14)">
        <path d="M244.854,299.833l8.698,22.255l17.552,-6.766l-8.693,-22.25l-17.557,6.76Z" style="fill:url(#_Linear15);fill-rule:nonzero;"/>
      </g>
    </g>
  </g>
  <g>
    <g>
      <clipPath id="_clip16">
        <path d="M230.073,269.021l-33.714,-90.99l13.068,-0.021l33.719,91.01l-13.073,0Z"/>
      </clipPath>
      <g clip-path="url(#_clip16)">
        <path d="M165.651,189.922l36.833,94.875l71.37,-27.688l-36.828,-94.875l-71.375,27.688Z" style="fill:url(#_Linear17);fill-rule:nonzero;"/>
      </g>
    </g>
  </g>
  <g>
    <g>
      <clipPath id="_clip18">
        <path d="M243.641,269.021l-13.073,-0.021l33.719,-90.99l13.073,0l-33.719,91.01Z"/>
      </clipPath>
      <g clip-path="url(#_clip18)">
        <path d="M199.859,189.922l36.833,94.875l71.375,-27.688l-36.833,-94.875l-71.375,27.688Z" style="fill:url(#_Linear19);fill-rule:nonzero;"/>
      </g>
    </g>
  </g>
  <g>
    <g>
      <clipPath id="_clip20">
        <path d="M283.036,316.057c0.859,0 1.505,-0.073 1.932,-0.219c0.615,-0.208 1.042,-0.646 1.266,-1.297c0.12,-0.328 0.177,-0.927 0.177,-1.807l0,-2.062l-3.375,0c-0.87,0 -1.51,0.073 -1.927,0.208c-0.974,0.339 -1.453,1.161 -1.453,2.474c0,0.807 0.187,1.438 0.573,1.896c0.344,0.38 0.839,0.625 1.49,0.74c0.271,0.042 0.714,0.062 1.323,0.062l-0.005,0.005Zm-0.193,1.958c-1.854,0 -3.208,-0.396 -4.057,-1.177c-0.828,-0.781 -1.25,-1.943 -1.25,-3.479c0,-1.536 0.422,-2.693 1.25,-3.458c0.599,-0.568 1.417,-0.932 2.443,-1.094c0.411,-0.073 1.016,-0.109 1.828,-0.109l3.333,0c-0.01,-0.927 -0.047,-1.563 -0.104,-1.891c-0.141,-0.823 -0.594,-1.349 -1.365,-1.599c-0.458,-0.141 -1.13,-0.214 -2,-0.214l-0.031,0c-1.026,0 -1.771,0.146 -2.234,0.427c-0.385,0.234 -0.703,0.594 -0.974,1.078l-1.693,-1c0.328,-0.74 0.776,-1.302 1.354,-1.688c0.786,-0.521 1.969,-0.786 3.547,-0.786l0.021,0c1.208,0 2.146,0.104 2.807,0.307c1.313,0.427 2.161,1.333 2.547,2.729c0.188,0.693 0.276,1.688 0.276,2.974l0,8.734l-1.87,0l-0.281,-1l-0.047,0c-0.411,0.401 -0.802,0.693 -1.172,0.865c-0.568,0.25 -1.318,0.375 -2.25,0.375l-0.078,0.005Z"/>
      </clipPath>
      <g clip-path="url(#_clip20)">
        <path d="M272.635,304.99l6.344,16.854l14.458,-5.786l-6.339,-16.854l-14.464,5.786Z" style="fill:url(#_Linear21);fill-rule:nonzero;"/>
      </g>
    </g>
  </g>
  <g>
    <g>
      <clipPath id="_clip22">
        <path d="M303.005,318.182l0,-14.906l2.005,0l0.318,1.026l0.042,0c0.453,-0.359 0.875,-0.62 1.281,-0.76c0.604,-0.234 1.417,-0.349 2.438,-0.349l0.922,0l0,2.031l-1.026,0c-1.255,0 -2.135,0.161 -2.651,0.484c-0.542,0.333 -0.854,0.927 -0.938,1.776c-0.047,0.365 -0.062,0.958 -0.062,1.776l0,8.922l-2.328,0Z"/>
      </clipPath>
      <g clip-path="url(#_clip22)">
        <path d="M297.849,305.156l6.073,15.344l11.24,-4.281l-6.073,-15.339l-11.24,4.276Z" style="fill:url(#_Linear23);fill-rule:nonzero;"/>
      </g>
    </g>
  </g>
  <g>
    <g>
      <clipPath id="_clip24">
        <path d="M322.625,317.839l0,-14.531l2.099,0l0,14.531l-2.099,0Zm1.047,-16.797c-0.443,0 -0.802,-0.177 -1.104,-0.531c-0.255,-0.302 -0.385,-0.656 -0.385,-1.068c0,-0.453 0.167,-0.844 0.505,-1.172c0.281,-0.266 0.625,-0.406 1.016,-0.406c0.417,0 0.786,0.182 1.089,0.536c0.26,0.302 0.385,0.651 0.385,1.052c0,0.474 -0.172,0.87 -0.505,1.182c-0.276,0.276 -0.615,0.406 -1.005,0.406l0.005,0Z"/>
      </clipPath>
      <g clip-path="url(#_clip24)">
        <path d="M315.823,300.479l6.75,18.427l8.964,-3.682l-6.75,-18.427l-8.964,3.682Z" style="fill:url(#_Linear25);fill-rule:nonzero;"/>
      </g>
    </g>
  </g>
  <g>
    <g>
      <clipPath id="_clip26">
        <path d="M320.391,269.083c-16.266,0 -29.495,-13.312 -29.495,-29.682l0,-61.318l12.193,0l0,61.318c0,9.599 7.76,17.411 17.297,17.411l17.307,0l0,-78.729l12.193,0l0,91l-29.495,0Z"/>
      </clipPath>
      <g clip-path="url(#_clip26)">
        <path d="M260.396,189.99l38.224,99.115l81.766,-31.932l-38.219,-99.109l-81.771,31.927Z" style="fill:url(#_Linear27);fill-rule:nonzero;"/>
      </g>
    </g>
  </g>
  <g>
    <g>
      <clipPath id="_clip28">
        <path d="M344.286,316.052c0.859,0 1.505,-0.068 1.922,-0.214c0.62,-0.208 1.042,-0.646 1.271,-1.302c0.115,-0.323 0.172,-0.922 0.172,-1.802l0,-2.062l-3.365,0c-0.87,0 -1.516,0.073 -1.922,0.208c-0.969,0.339 -1.458,1.156 -1.458,2.469c0,0.812 0.193,1.443 0.573,1.896c0.344,0.385 0.839,0.63 1.49,0.745c0.271,0.042 0.714,0.057 1.323,0.057l-0.005,0.005Zm-0.193,1.964c-1.854,0 -3.208,-0.396 -4.052,-1.182c-0.833,-0.781 -1.25,-1.943 -1.25,-3.474c0,-1.536 0.417,-2.693 1.25,-3.458c0.594,-0.562 1.411,-0.932 2.438,-1.094c0.411,-0.073 1.026,-0.104 1.823,-0.104l3.339,0c-0.01,-0.932 -0.047,-1.568 -0.104,-1.896c-0.141,-0.823 -0.594,-1.349 -1.365,-1.594c-0.464,-0.146 -1.13,-0.214 -2,-0.214l-0.031,0c-1.026,0 -1.771,0.141 -2.234,0.422c-0.385,0.234 -0.703,0.594 -0.974,1.078l-1.682,-1c0.323,-0.734 0.771,-1.302 1.354,-1.682c0.776,-0.521 1.958,-0.786 3.536,-0.786l0.021,0c1.203,0 2.135,0.104 2.802,0.307c1.318,0.422 2.161,1.328 2.547,2.724c0.188,0.698 0.281,1.693 0.281,2.974l0,8.729l-1.875,0l-0.276,-1l-0.047,0c-0.411,0.401 -0.802,0.698 -1.172,0.865c-0.573,0.25 -1.323,0.375 -2.25,0.375l-0.078,0.01Z"/>
      </clipPath>
      <g clip-path="url(#_clip28)">
        <path d="M333.891,304.995l6.339,16.844l14.458,-5.786l-6.339,-16.844l-14.458,5.786Z" style="fill:url(#_Linear29);fill-rule:nonzero;"/>
      </g>
    </g>
  </g>
  <g>
    <g>
      <clipPath id="_clip30">
        <path d="M363.901,229.734l0,-17.646c0,-18.745 15.073,-33.995 33.609,-33.995l26.073,0l0,12.292l-26.073,0c-11.833,0 -21.458,9.734 -21.458,21.703l0,5.354l46.12,0l0,12.292l-58.271,0Z"/>
      </clipPath>
      <g clip-path="url(#_clip30)">
        <path d="M346.688,184.854l25.026,65.24l69.089,-27.12l-25.031,-65.24l-69.083,27.12Z" style="fill:url(#_Linear31);fill-rule:nonzero;"/>
      </g>
    </g>
  </g>
  <g>
    <g>
      <clipPath id="_clip32">
        <path d="M363.911,269.089l0,-12.286l26.453,0c11.833,0 21.458,-9.74 21.458,-21.708l0,-5.359l-46.125,0l0,-12.292l58.271,0l0,17.651c0,18.745 -15.078,33.995 -33.604,33.995l-26.453,0Z"/>
      </clipPath>
      <g clip-path="url(#_clip32)">
        <path d="M346.693,224.203l25.078,65.375l69.417,-27.25l-25.078,-65.375l-69.417,27.25Z" style="fill:url(#_Linear33);fill-rule:nonzero;"/>
      </g>
    </g>
  </g>
  <g>
    <clipPath id="_clip34">
      <rect x="437.812" y="178.083" width="12" height="12"/>
    </clipPath>
    <g clip-path="url(#_clip34)">
      <path d="M433.76,179.651l5.62,14.479l14.479,-5.62l-5.62,-14.474l-14.479,5.615Z" style="fill:url(#_Linear35);fill-rule:nonzero;"/>
    </g>
  </g>
  <defs>
    <linearGradient id="_Linear5" x1="0" y1="0" x2="1" y2="0" gradientUnits="userSpaceOnUse" gradientTransform="matrix(81.787918,-31.912561,31.912561,81.787918,112.67958,239.446011)">
      <stop offset="0" style="stop-color:#fb5d37;stop-opacity:1"/>
      <stop offset="0.5" style="stop-color:#fb5e39;stop-opacity:1"/>
      <stop offset="0.56" style="stop-color:#fb5f39;stop-opacity:1"/>
      <stop offset="0.75" style="stop-color:#fa613c;stop-opacity:1"/>
      <stop offset="1" style="stop-color:#f96440;stop-opacity:1"/>
    </linearGradient>
    <linearGradient id="_Linear7" x1="0" y1="0" x2="1" y2="0" gradientUnits="userSpaceOnUse" gradientTransform="matrix(59.159948,-23.083427,23.083427,59.159948,116.68028,249.957042)">
      <stop offset="0" style="stop-color:#fb5d37;stop-opacity:1"/>
      <stop offset="0.63" style="stop-color:#fb5e38;stop-opacity:1"/>
      <stop offset="0.69" style="stop-color:#fb5e39;stop-opacity:1"/>
      <stop offset="0.75" style="stop-color:#fb5f39;stop-opacity:1"/>
      <stop offset="0.88" style="stop-color:#fb603b;stop-opacity:1"/>
      <stop offset="0.94" style="stop-color:#fb613b;stop-opacity:1"/>
      <stop offset="1" style="stop-color:#fa613c;stop-opacity:1"/>
    </linearGradient>
    <linearGradient id="_Linear9" x1="0" y1="0" x2="1" y2="0" gradientUnits="userSpaceOnUse" gradientTransform="matrix(17.983865,-6.852241,6.852241,17.983865,171.921616,317.449707)">
      <stop offset="0" style="stop-color:#fb5d37;stop-opacity:1"/>
      <stop offset="0.5" style="stop-color:#fb5e38;stop-opacity:1"/>
      <stop offset="0.75" style="stop-color:#fb5e38;stop-opacity:1"/>
      <stop offset="1" style="stop-color:#fb5f39;stop-opacity:1"/>
    </linearGradient>
    <linearGradient id="_Linear11" x1="0" y1="0" x2="1" y2="0" gradientUnits="userSpaceOnUse" gradientTransform="matrix(14.443719,-5.804367,5.804367,14.443719,199.043287,313.486521)">
      <stop offset="0" style="stop-color:#fb603b;stop-opacity:1"/>
      <stop offset="0.25" style="stop-color:#fb603b;stop-opacity:1"/>
      <stop offset="0.5" style="stop-color:#fa613c;stop-opacity:1"/>
      <stop offset="0.75" style="stop-color:#fa613c;stop-opacity:1"/>
      <stop offset="1" style="stop-color:#fa623d;stop-opacity:1"/>
    </linearGradient>
    <linearGradient id="_Linear13" x1="0" y1="0" x2="1" y2="0" gradientUnits="userSpaceOnUse" gradientTransform="matrix(15.517517,-5.981685,5.981685,15.517517,224.402644,313.620772)">
      <stop offset="0" style="stop-color:#fa633e;stop-opacity:1"/>
      <stop offset="0.5" style="stop-color:#f9643f;stop-opacity:1"/>
      <stop offset="1" style="stop-color:#f96541;stop-opacity:1"/>
    </linearGradient>
    <linearGradient id="_Linear15" x1="0" y1="0" x2="1" y2="0" gradientUnits="userSpaceOnUse" gradientTransform="matrix(17.555972,-6.765024,6.765024,17.555972,249.202323,310.964186)">
      <stop offset="0" style="stop-color:#f96742;stop-opacity:1"/>
      <stop offset="0.5" style="stop-color:#f86743;stop-opacity:1"/>
      <stop offset="1" style="stop-color:#f86945;stop-opacity:1"/>
    </linearGradient>
    <linearGradient id="_Linear17" x1="0" y1="0" x2="1" y2="0" gradientUnits="userSpaceOnUse" gradientTransform="matrix(71.373283,-27.685951,27.685951,71.373283,184.070241,237.366557)">
      <stop offset="0" style="stop-color:#fa623d;stop-opacity:1"/>
      <stop offset="0.06" style="stop-color:#fa623d;stop-opacity:1"/>
      <stop offset="0.25" style="stop-color:#f9643f;stop-opacity:1"/>
      <stop offset="0.38" style="stop-color:#f96541;stop-opacity:1"/>
      <stop offset="0.56" style="stop-color:#f86743;stop-opacity:1"/>
      <stop offset="0.75" style="stop-color:#f86946;stop-opacity:1"/>
      <stop offset="0.81" style="stop-color:#f86a46;stop-opacity:1"/>
      <stop offset="0.88" style="stop-color:#f76b47;stop-opacity:1"/>
      <stop offset="0.94" style="stop-color:#f76b48;stop-opacity:1"/>
      <stop offset="1" style="stop-color:#f76c49;stop-opacity:1"/>
    </linearGradient>
    <linearGradient id="_Linear19" x1="0" y1="0" x2="1" y2="0" gradientUnits="userSpaceOnUse" gradientTransform="matrix(71.373066,-27.685867,27.685867,71.373066,218.277684,237.356969)">
      <stop offset="0" style="stop-color:#f96642;stop-opacity:1"/>
      <stop offset="0.06" style="stop-color:#f96742;stop-opacity:1"/>
      <stop offset="0.13" style="stop-color:#f96743;stop-opacity:1"/>
      <stop offset="0.19" style="stop-color:#f86844;stop-opacity:1"/>
      <stop offset="0.25" style="stop-color:#f86845;stop-opacity:1"/>
      <stop offset="0.31" style="stop-color:#f86945;stop-opacity:1"/>
      <stop offset="0.44" style="stop-color:#f86a47;stop-opacity:1"/>
      <stop offset="0.5" style="stop-color:#f76b48;stop-opacity:1"/>
      <stop offset="0.56" style="stop-color:#f76c48;stop-opacity:1"/>
      <stop offset="0.63" style="stop-color:#f76c49;stop-opacity:1"/>
      <stop offset="0.81" style="stop-color:#f66e4b;stop-opacity:1"/>
      <stop offset="1" style="stop-color:#f6704e;stop-opacity:1"/>
    </linearGradient>
    <linearGradient id="_Linear21" x1="0" y1="0" x2="1" y2="0" gradientUnits="userSpaceOnUse" gradientTransform="matrix(14.462576,-5.787929,5.787929,14.462576,276.00109,313.933381)">
      <stop offset="0" style="stop-color:#f86a46;stop-opacity:1"/>
      <stop offset="0.25" style="stop-color:#f86a46;stop-opacity:1"/>
      <stop offset="0.5" style="stop-color:#f76b47;stop-opacity:1"/>
      <stop offset="0.75" style="stop-color:#f76b48;stop-opacity:1"/>
      <stop offset="1" style="stop-color:#f76c48;stop-opacity:1"/>
    </linearGradient>
    <linearGradient id="_Linear23" x1="0" y1="0" x2="1" y2="0" gradientUnits="userSpaceOnUse" gradientTransform="matrix(11.240437,-4.276103,4.276103,11.240437,300.59251,312.088603)">
      <stop offset="0" style="stop-color:#f76d4a;stop-opacity:1"/>
      <stop offset="0.5" style="stop-color:#f76d4a;stop-opacity:1"/>
      <stop offset="1" style="stop-color:#f66e4b;stop-opacity:1"/>
    </linearGradient>
    <linearGradient id="_Linear25" x1="0" y1="0" x2="1" y2="0" gradientUnits="userSpaceOnUse" gradientTransform="matrix(8.960062,-3.684038,3.684038,8.960062,319.250259,309.831682)">
      <stop offset="0" style="stop-color:#f66f4d;stop-opacity:1"/>
      <stop offset="0.5" style="stop-color:#f6704d;stop-opacity:1"/>
      <stop offset="1" style="stop-color:#f6704e;stop-opacity:1"/>
    </linearGradient>
    <linearGradient id="_Linear27" x1="0" y1="0" x2="1" y2="0" gradientUnits="userSpaceOnUse" gradientTransform="matrix(81.768501,-31.930586,31.930586,81.768501,279.507023,239.547082)">
      <stop offset="0" style="stop-color:#f66e4b;stop-opacity:1"/>
      <stop offset="0.06" style="stop-color:#f66e4b;stop-opacity:1"/>
      <stop offset="0.25" style="stop-color:#f6704e;stop-opacity:1"/>
      <stop offset="0.31" style="stop-color:#f5714f;stop-opacity:1"/>
      <stop offset="0.5" style="stop-color:#f57352;stop-opacity:1"/>
      <stop offset="0.56" style="stop-color:#f57452;stop-opacity:1"/>
      <stop offset="0.63" style="stop-color:#f47553;stop-opacity:1"/>
      <stop offset="0.84" style="stop-color:#f37857;stop-opacity:1"/>
      <stop offset="0.88" style="stop-color:#f37857;stop-opacity:1"/>
      <stop offset="0.91" style="stop-color:#f37858;stop-opacity:1"/>
      <stop offset="0.94" style="stop-color:#f27958;stop-opacity:1"/>
      <stop offset="1" style="stop-color:#f1795a;stop-opacity:1"/>
    </linearGradient>
    <linearGradient id="_Linear29" x1="0" y1="0" x2="1" y2="0" gradientUnits="userSpaceOnUse" gradientTransform="matrix(14.459844,-5.786835,5.786835,14.459844,337.254115,313.931601)">
      <stop offset="0" style="stop-color:#f5714f;stop-opacity:1"/>
      <stop offset="1" style="stop-color:#f57351;stop-opacity:1"/>
    </linearGradient>
    <linearGradient id="_Linear31" x1="0" y1="0" x2="1" y2="0" gradientUnits="userSpaceOnUse" gradientTransform="matrix(69.085162,-27.11992,27.11992,69.085162,360.896332,221.893565)">
      <stop offset="0" style="stop-color:#f27959;stop-opacity:1"/>
      <stop offset="0.06" style="stop-color:#f17959;stop-opacity:1"/>
      <stop offset="0.13" style="stop-color:#f17a5a;stop-opacity:1"/>
      <stop offset="0.16" style="stop-color:#f07a5b;stop-opacity:1"/>
      <stop offset="0.19" style="stop-color:#f07b5b;stop-opacity:1"/>
      <stop offset="0.25" style="stop-color:#ef7b5c;stop-opacity:1"/>
      <stop offset="0.28" style="stop-color:#ef7b5d;stop-opacity:1"/>
      <stop offset="0.31" style="stop-color:#ef7c5d;stop-opacity:1"/>
      <stop offset="0.34" style="stop-color:#ee7c5e;stop-opacity:1"/>
      <stop offset="0.38" style="stop-color:#ee7c5e;stop-opacity:1"/>
      <stop offset="0.5" style="stop-color:#ec7e61;stop-opacity:1"/>
      <stop offset="0.53" style="stop-color:#ec7e61;stop-opacity:1"/>
      <stop offset="0.56" style="stop-color:#ec7e62;stop-opacity:1"/>
      <stop offset="0.59" style="stop-color:#eb7f62;stop-opacity:1"/>
      <stop offset="0.69" style="stop-color:#ea7f64;stop-opacity:1"/>
      <stop offset="0.72" style="stop-color:#ea8064;stop-opacity:1"/>
      <stop offset="0.78" style="stop-color:#e98065;stop-opacity:1"/>
      <stop offset="0.84" style="stop-color:#e88166;stop-opacity:1"/>
      <stop offset="0.88" style="stop-color:#e88167;stop-opacity:1"/>
      <stop offset="0.91" style="stop-color:#e88267;stop-opacity:1"/>
      <stop offset="0.94" style="stop-color:#e78268;stop-opacity:1"/>
      <stop offset="0.97" style="stop-color:#e78268;stop-opacity:1"/>
      <stop offset="1" style="stop-color:#e78369;stop-opacity:1"/>
    </linearGradient>
    <linearGradient id="_Linear33" x1="0" y1="0" x2="1" y2="0" gradientUnits="userSpaceOnUse" gradientTransform="matrix(69.417263,-27.250288,27.250288,69.417263,357.560562,252.53803)">
      <stop offset="0" style="stop-color:#f47756;stop-opacity:1"/>
      <stop offset="0.09" style="stop-color:#f37857;stop-opacity:1"/>
      <stop offset="0.13" style="stop-color:#f37857;stop-opacity:1"/>
      <stop offset="0.16" style="stop-color:#f37858;stop-opacity:1"/>
      <stop offset="0.19" style="stop-color:#f27958;stop-opacity:1"/>
      <stop offset="0.25" style="stop-color:#f17959;stop-opacity:1"/>
      <stop offset="0.31" style="stop-color:#f17a5a;stop-opacity:1"/>
      <stop offset="0.34" style="stop-color:#f07a5b;stop-opacity:1"/>
      <stop offset="0.38" style="stop-color:#f07b5b;stop-opacity:1"/>
      <stop offset="0.44" style="stop-color:#ef7b5c;stop-opacity:1"/>
      <stop offset="0.47" style="stop-color:#ef7b5d;stop-opacity:1"/>
      <stop offset="0.5" style="stop-color:#ef7c5d;stop-opacity:1"/>
      <stop offset="0.53" style="stop-color:#ee7c5e;stop-opacity:1"/>
      <stop offset="0.56" style="stop-color:#ee7c5e;stop-opacity:1"/>
      <stop offset="0.69" style="stop-color:#ec7e61;stop-opacity:1"/>
      <stop offset="0.72" style="stop-color:#ec7e61;stop-opacity:1"/>
      <stop offset="0.75" style="stop-color:#ec7e62;stop-opacity:1"/>
      <stop offset="0.78" style="stop-color:#eb7f62;stop-opacity:1"/>
      <stop offset="0.88" style="stop-color:#ea7f64;stop-opacity:1"/>
      <stop offset="0.91" style="stop-color:#ea8064;stop-opacity:1"/>
      <stop offset="0.97" style="stop-color:#e98065;stop-opacity:1"/>
      <stop offset="1" style="stop-color:#e98166;stop-opacity:1"/>
    </linearGradient>
    <linearGradient id="_Linear35" x1="0" y1="0" x2="1" y2="0" gradientUnits="userSpaceOnUse" gradientTransform="matrix(14.47664,-5.6178,5.6178,14.47664,436.571349,186.890057)">
      <stop offset="0" style="stop-color:#e5846b;stop-opacity:1"/>
      <stop offset="0.25" style="stop-color:#e5846b;stop-opacity:1"/>
      <stop offset="0.5" style="stop-color:#e4856c;stop-opacity:1"/>
      <stop offset="0.75" style="stop-color:#e4856d;stop-opacity:1"/>
      <stop offset="1" style="stop-color:#e3866e;stop-opacity:1"/>
    </linearGradient>
  </defs>
</svg>