<?xml version="1.0" encoding="UTF-8" standalone="no"?>
<!DOCTYPE svg PUBLIC "-//W3C//DTD SVG 1.1//EN" "http://www.w3.org/Graphics/SVG/1.1/DTD/svg11.dtd">
<svg width="100%" height="100%" viewBox="0 0 2084 2084" version="1.1" xmlns="http://www.w3.org/2000/svg" xmlns:xlink="http://www.w3.org/1999/xlink" xml:space="preserve" xmlns:serif="http://www.serif.com/" style="fill-rule:evenodd;clip-rule:evenodd;stroke-linejoin:round;stroke-miterlimit:2;">
  <g>
    <g>
      <clipPath id="_clip1">
        <path d="M852.344,1522.352c142.079,0 257.682,-115.451 257.682,-257.335l0,-704.362l-515.386,0l0,961.697l257.704,0Zm-435.373,177.539l0,-1316.667l870.833,0l0,881.793c0,239.757 -195.312,434.787 -435.373,434.787l-435.46,0.087Z"/>
      </clipPath>
      <g clip-path="url(#_clip1)">
        <path d="M-27.713,555.534l558.659,1437.652l1201.519,-465.625l-558.637,-1437.652l-1201.541,465.625Z" style="fill:#fc5e38;fill-rule:nonzero;"/>
      </g>
    </g>
  </g>
  <g>
    <clipPath id="_clip2">
      <rect x="1489.518" y="383.225" width="175" height="175"/>
    </clipPath>
    <g clip-path="url(#_clip2)">
      <path d="M1430.512,406.12l81.923,211.111l211.111,-81.923l-81.923,-211.111l-211.111,81.923Z" style="fill:url(#_Linear3);fill-rule:nonzero;"/>
    </g>
  </g>
  <defs>
    <linearGradient id="_Linear3" x1="0" y1="0" x2="1" y2="0" gradientUnits="userSpaceOnUse" gradientTransform="matrix(211.117644,-81.926246,81.926246,211.117644,1471.462289,511.666362)">
      <stop offset="0" style="stop-color:#e5846b;stop-opacity:1"/>
      <stop offset="0.25" style="stop-color:#e5846b;stop-opacity:1"/>
      <stop offset="0.5" style="stop-color:#e4856c;stop-opacity:1"/>
      <stop offset="0.75" style="stop-color:#e4856d;stop-opacity:1"/>
      <stop offset="1" style="stop-color:#e3866e;stop-opacity:1"/>
    </linearGradient>
  </defs>
</svg>